name D:\school\WTK\thesis\model\3dpredictsim\Results\batch_tmt_lin\Pog_s1_tmt_bCst_d05_k1000_ig24_act_TTM.mot
datacolumns 128
datarows 4
range 2.19266078 2.23651400
endheader
time	pelvis_tilt	pelvis_list	pelvis_rotation	pelvis_tx	pelvis_ty	pelvis_tz	hip_flexion_l	hip_adduction_l	hip_rotation_l	hip_flexion_r	hip_adduction_r	hip_rotation_r	knee_angle_l	knee_angle_r	ankle_angle_l	ankle_angle_r	subtalar_angle_l	subtalar_angle_r	tmt_angle_l	tmt_angle_r	mtp_angle_l	mtp_angle_r	lumbar_extension	lumbar_bending	lumbar_rotation	arm_flex_l	arm_add_l	arm_rot_l	arm_flex_r	arm_add_r	arm_rot_r	elbow_flex_l	elbow_flex_r	pro_sup_l	pro_sup_r	glut_med1_l/activation	glut_med2_l/activation	glut_med3_l/activation	glut_min1_l/activation	glut_min2_l/activation	glut_min3_l/activation	semimem_l/activation	semiten_l/activation	bifemlh_l/activation	bifemsh_l/activation	sar_l/activation	add_long_l/activation	add_brev_l/activation	add_mag1_l/activation	add_mag2_l/activation	add_mag3_l/activation	tfl_l/activation	pect_l/activation	grac_l/activation	glut_max1_l/activation	glut_max2_l/activation	glut_max3_l/activation	iliacus_l/activation	psoas_l/activation	quad_fem_l/activation	gem_l/activation	peri_l/activation	rect_fem_l/activation	vas_med_l/activation	vas_int_l/activation	vas_lat_l/activation	med_gas_l/activation	lat_gas_l/activation	soleus_l/activation	tib_post_l/activation	flex_dig_l/activation	flex_hal_l/activation	tib_ant_l/activation	per_brev_l/activation	per_long_l/activation	per_tert_l/activation	ext_dig_l/activation	ext_hal_l/activation	ercspn_l/activation	intobl_l/activation	extobl_l/activation	glut_med1_r/activation	glut_med2_r/activation	glut_med3_r/activation	glut_min1_r/activation	glut_min2_r/activation	glut_min3_r/activation	semimem_r/activation	semiten_r/activation	bifemlh_r/activation	bifemsh_r/activation	sar_r/activation	add_long_r/activation	add_brev_r/activation	add_mag1_r/activation	add_mag2_r/activation	add_mag3_r/activation	tfl_r/activation	pect_r/activation	grac_r/activation	glut_max1_r/activation	glut_max2_r/activation	glut_max3_r/activation	iliacus_r/activation	psoas_r/activation	quad_fem_r/activation	gem_r/activation	peri_r/activation	rect_fem_r/activation	vas_med_r/activation	vas_int_r/activation	vas_lat_r/activation	med_gas_r/activation	lat_gas_r/activation	soleus_r/activation	tib_post_r/activation	flex_dig_r/activation	flex_hal_r/activation	tib_ant_r/activation	per_brev_r/activation	per_long_r/activation	per_tert_r/activation	ext_dig_r/activation	ext_hal_r/activation	ercspn_r/activation	intobl_r/activation	extobl_r/activation	
          2.19266078	         -2.87068721	          1.76727888	        -10.95519702	          2.74082598	          0.83069185	          0.00313431	         36.46431244	         -0.67873209	         -1.22711515	        -20.28410204	         -5.64620597	          5.29917778	        -10.73819159	        -15.35082077	         11.43101281	         -5.28873749	         -5.11379174	         20.12934024	          0.01691234	         -0.45040235	         -0.08272224	         31.43488670	         -0.46707711	          1.68260472	          5.10669764	         -6.57742582	        -13.49764360	         15.16569213	          3.95809155	        -13.57751933	         16.92718499	         14.88404324	         37.52486601	         86.51662706	         86.51662706	          0.05482935	          0.06218102	          0.05000008	          0.07732253	          0.05360297	          0.05000094	          0.12194488	          0.13273359	          0.12059105	          0.15494848	          0.05980476	          0.05000515	          0.06896225	          0.10001929	          0.13648997	          0.15644303	          0.05000022	          0.05000533	          0.17548309	          0.06218136	          0.05000022	          0.19726198	          0.08735847	          0.07951479	          0.12880761	          0.18207272	          0.21661441	          0.05000002	          0.05000007	          0.05000006	          0.05000006	          0.07733065	          0.07733073	          0.05000090	          0.06036768	          0.06218313	          0.06871339	          0.49992324	          0.39521387	          0.25944330	          0.13366030	          0.58006910	          0.36842780	          0.05000002	          0.20510632	          0.13426860	          0.11933976	          0.05000035	          0.06255591	          0.20450309	          0.10795034	          0.08897443	          0.05000395	          0.05000121	          0.05000081	          0.05640016	          0.05949742	          0.08838595	          0.06218135	          0.06217742	          0.05001520	          0.05000217	          0.23003968	          0.07162545	          0.06935601	          0.05000248	          0.05000196	          0.05000377	          0.45238502	          0.60173490	          0.08036324	          0.05004153	          0.09942302	          0.37144058	          0.08020127	          0.08280517	          0.07175592	          0.17076099	          0.24914169	          0.05271242	          0.18540297	          0.24664277	          0.24889952	          0.05000000	          0.39481573	          0.37222149	          0.05000004	          0.05000005	          0.05000006	          0.05000000	          0.05156053	          0.06218145	
          2.20727852	         -2.89679966	          1.74098937	        -11.31828117	          2.76620485	          0.82868625	          0.00273712	         35.98901905	         -0.46770728	         -1.10474932	        -20.96133772	         -6.25277335	          5.22494040	        -12.54192495	        -15.90282363	         10.54751630	         -9.88759061	         -5.51903895	         20.89161916	         -0.03393529	         -0.71277602	         -0.08606005	         33.76276297	         -0.17013956	          1.41627895	          5.27139015	         -8.77774542	        -13.52978015	         15.23816578	          3.37181082	        -13.69748108	         17.45468252	         14.76050209	         38.86350585	         86.51662706	         86.51662706	          0.16365435	          0.05000010	          0.51886903	          0.06217788	          0.05000036	          0.39758374	          0.09805569	          0.10673090	          0.09696711	          0.12459383	          0.06218185	          0.07012949	          0.11301358	          0.08042584	          0.10975178	          0.19894072	          0.05000056	          0.06218553	          0.14110578	          0.05000009	          0.19984154	          0.23478424	          0.07024485	          0.06393775	          0.10357405	          0.14640455	          0.34362190	          0.05000335	          0.05000022	          0.05000019	          0.05000014	          0.06218146	          0.06218154	          0.06218142	          0.05000042	          0.05000172	          0.05525309	          0.56457555	          0.40722201	          0.24069378	          0.41313513	          0.65085084	          0.45922762	          0.05608638	          0.16492566	          0.10796516	          0.09596126	          0.06218427	          0.06218364	          0.16961204	          0.09621858	          0.07154506	          0.05000079	          0.05000009	          0.05000013	          0.05000028	          0.09070563	          0.08410289	          0.05000015	          0.05000016	          0.05000018	          0.05000013	          0.18497468	          0.05759551	          0.06067214	          0.06217727	          0.05014530	          0.05000164	          0.36376277	          0.53588147	          0.06904039	          0.06218328	          0.07994593	          0.29867478	          0.07277969	          0.09093714	          0.08041304	          0.13730863	          0.20033443	          0.05000000	          0.14908223	          0.19832508	          0.20013972	          0.05000047	          0.33289687	          0.33348343	          0.51886923	          0.35991148	          0.23959608	          0.08450071	          0.05000004	          0.05000008	
          2.22189626	         -2.91257928	          1.73319666	        -11.62200925	          2.79148959	          0.82667220	          0.00230472	         35.57738343	         -0.19659825	         -0.97808856	        -21.33203858	         -6.82761540	          5.14895261	        -14.58879037	        -16.88545932	          9.35451356	        -14.47450053	         -5.89594260	         21.55348440	         -0.02397807	         -0.98713528	         -0.12959917	         34.98778807	          0.09513220	          1.09966789	          5.41480468	        -10.95811995	        -13.56294653	         15.40099004	          2.77915222	        -13.81242511	         17.95067279	         14.73583872	         40.11108469	         86.51662706	         86.51662706	          0.31884664	          0.42042760	          0.58035635	          0.05000104	          0.29932616	          0.31969766	          0.07884643	          0.08582244	          0.07797113	          0.10018571	          0.05000041	          0.05639104	          0.09087407	          0.18231694	          0.23921608	          0.22309347	          0.05000018	          0.05000354	          0.11346307	          0.31397436	          0.30183808	          0.29540972	          0.05648378	          0.05141225	          0.37701993	          0.11772388	          0.27630594	          0.05000003	          0.05000051	          0.05000091	          0.19918549	          0.05000002	          0.05000008	          0.05000000	          0.05000002	          0.05000310	          0.05000048	          0.76750330	          0.57159996	          0.28852552	          0.70278031	          0.76817350	          0.61230502	          0.08119145	          0.13261645	          0.08681461	          0.11960741	          0.05000230	          0.05000178	          0.13638527	          0.07736929	          0.05752933	          0.05000447	          0.05000050	          0.05000043	          0.05000054	          0.07293638	          0.21880062	          0.06456261	          0.05000456	          0.05029565	          0.08971161	          0.14873790	          0.05035294	          0.05000043	          0.05000101	          0.05000055	          0.05000032	          0.29250109	          0.55489705	          0.05551529	          0.05000160	          0.06428443	          0.24016390	          0.13097984	          0.14467482	          0.11059721	          0.11040964	          0.16108859	          0.05000001	          0.11987678	          0.15947292	          0.16093205	          0.31654993	          0.43453898	          0.33384760	          0.75632960	          0.36572784	          0.19265886	          0.12867134	          0.05000000	          0.05000002	
          2.23651400	         -2.92265058	          1.73728796	        -11.86126949	          2.81597104	          0.82508353	          0.00180640	         35.39602409	          0.11336920	         -0.88509841	        -21.31165042	         -7.36523408	          5.09533080	        -16.86025779	        -18.43161467	          7.94577320	        -18.35969360	         -6.26862731	         22.15371957	         -0.03008594	         -1.05818799	         -0.24689162	         33.39757453	          0.27422202	          0.74514118	          5.53081861	        -12.94774018	        -13.57920589	         15.73888175	          2.29204909	        -13.88040553	         18.37725550	         14.67681626	         41.18212833	         86.51662706	         86.51662706	          0.35625723	          0.47864217	          0.63933404	          0.08327339	          0.24068818	          0.28722853	          0.06340030	          0.06900981	          0.06269651	          0.08055918	          0.05000024	          0.05000024	          0.07307182	          0.14660122	          0.22231227	          0.23132397	          0.05000061	          0.05000173	          0.09123558	          0.34958204	          0.34634075	          0.31681298	          0.05000006	          0.05000007	          0.32248182	          0.09466197	          0.22217753	          0.05000009	          0.26288277	          0.22411116	          0.25623212	          0.05000002	          0.05000005	          0.05000000	          0.05000001	          0.05000018	          0.05000015	          0.81096877	          0.45962265	          0.23200294	          0.71684982	          0.82953237	          0.56037758	          0.10608003	          0.10663668	          0.06980749	          0.09617665	          0.06218146	          0.05000361	          0.10966747	          0.06221268	          0.06218042	          0.05000114	          0.05000007	          0.05000017	          0.05000004	          0.05864816	          0.17593733	          0.10844581	          0.05000594	          0.05001001	          0.08912300	          0.11960000	          0.05000085	          0.05000025	          0.05001124	          0.05002498	          0.06218075	          0.23519967	          0.44619186	          0.05000055	          0.05000402	          0.05882267	          0.19311540	          0.10532095	          0.11633352	          0.09617082	          0.08878022	          0.12953109	          0.05000002	          0.09639276	          0.12823207	          0.12940530	          0.25453730	          0.34941213	          0.26844635	          0.60816343	          0.67877042	          0.15491674	          0.17455826	          0.05000001	          0.05000002	
